<svg width="22" height="27" viewBox="0 0 22 27" fill="none" xmlns="http://www.w3.org/2000/svg">
<path d="M21.9885 6.68971C20.5573 6.68971 19.2366 6.18386 18.1763 5.3304C16.9601 4.35195 16.0862 2.91693 15.7777 1.26284C15.7009 0.854063 15.66 0.432226 15.6558 0H11.5673V11.9201L11.5623 18.4492C11.5623 20.1947 10.4969 21.6748 9.02011 22.1952C8.59164 22.3463 8.12867 22.4179 7.64651 22.3897C7.03135 22.3538 6.45487 22.1555 5.95378 21.8357C4.88734 21.1553 4.16451 19.9207 4.14475 18.5085C4.11387 16.3014 5.78629 14.5021 7.85323 14.5021C8.26139 14.5021 8.65313 14.5731 9.02011 14.7022V11.4445V10.2734C8.6331 10.2122 8.23941 10.1805 7.84099 10.1805C5.57845 10.1805 3.46254 11.1839 1.94983 12.9917C0.806594 14.3579 0.120767 16.1007 0.0150409 17.9285C-0.123516 20.3295 0.699756 22.6117 2.29677 24.2958C2.53132 24.5431 2.77783 24.7726 3.03546 24.9842C4.40462 26.1078 6.07843 26.7173 7.84127 26.7173C8.23941 26.7173 8.63338 26.6858 9.02039 26.6247C10.6672 26.3643 12.1866 25.5601 13.3858 24.2952C14.8592 22.7415 15.6733 20.6786 15.682 18.483L15.6608 8.73299C16.3636 9.31157 17.1324 9.7904 17.957 10.1618C19.2399 10.7392 20.6002 11.0319 21.9999 11.0316V7.86408V6.68882C22.001 6.68971 21.9894 6.68971 21.9885 6.68971Z" fill="#543A76"/>
</svg>
