<svg width="30" height="27" viewBox="0 0 30 27" fill="none" xmlns="http://www.w3.org/2000/svg">
<path d="M29.3201 3.08336C28.8488 3.31074 28.3643 3.50264 27.8692 3.65843C28.4553 2.93736 28.9022 2.08891 29.175 1.16046C29.2362 0.952346 29.1728 0.72455 29.0155 0.58844C28.8585 0.452225 28.6402 0.435909 28.4673 0.547386C27.4159 1.22572 26.2815 1.71321 25.092 1.99828C23.8939 0.72476 22.2665 0 20.5842 0C17.0331 0 14.144 3.14252 14.144 7.00517C14.144 7.30939 14.1617 7.61193 14.1967 7.91025C9.79015 7.4894 5.69342 5.13343 2.8802 1.37973C2.77995 1.24593 2.6255 1.17383 2.46737 1.18762C2.30914 1.20109 2.16698 1.29815 2.08705 1.44731C1.51647 2.51229 1.21482 3.73033 1.21482 4.96963C1.21482 6.65758 1.76885 8.25911 2.74753 9.51052C2.44995 9.39841 2.16117 9.2583 1.88556 9.09187C1.7376 9.00229 1.55702 9.00366 1.41002 9.09535C1.26292 9.18703 1.17069 9.35567 1.16682 9.53999C1.16615 9.57105 1.16615 9.6021 1.16615 9.63357C1.16615 12.1531 2.41279 14.4215 4.31875 15.6579C4.15501 15.6401 3.99136 15.6143 3.82878 15.5805C3.66117 15.5457 3.48882 15.6096 3.37578 15.7486C3.26256 15.8876 3.22511 16.0813 3.27727 16.2581C3.98275 18.654 5.7991 20.4162 7.9949 20.9535C6.17371 22.1943 4.09104 22.8442 1.90472 22.8442C1.44853 22.8442 0.989727 22.8151 0.540696 22.7573C0.317632 22.7284 0.104343 22.8717 0.0283753 23.1024C-0.0475922 23.3333 0.0329236 23.5907 0.222697 23.723C3.03137 25.6819 6.279 26.7173 9.61431 26.7173C16.1711 26.7173 20.2729 23.354 22.5592 20.5326C25.4101 17.0144 27.0452 12.3578 27.0452 7.75667C27.0452 7.56445 27.0425 7.37034 27.0371 7.17686C28.1619 6.25504 29.1303 5.13943 29.9183 3.85718C30.038 3.66243 30.0251 3.40506 29.8864 3.22579C29.7479 3.04641 29.5171 2.98841 29.3201 3.08336Z" fill="#543A76"/>
</svg>
